<?xml version="1.0" encoding="utf-8"?>
<!-- Generator: Adobe Illustrator 16.0.0, SVG Export Plug-In . SVG Version: 6.00 Build 0)  -->
<!DOCTYPE svg PUBLIC "-//W3C//DTD SVG 1.1//EN" "http://www.w3.org/Graphics/SVG/1.1/DTD/svg11.dtd">
<svg version="1.1" id="Layer_1" xmlns="http://www.w3.org/2000/svg" xmlns:xlink="http://www.w3.org/1999/xlink" x="0px" y="0px"
	 width="192px" height="32px" viewBox="0 0 192 32" enable-background="new 0 0 192 32" xml:space="preserve">
<circle fill="#3B5998" cx="144" cy="16" r="16"/>
<g>
	<path fill="#FFFFFF" d="M147.6,10.3h-1.6c-1.2,0-1.5,0.6-1.5,1.4v1.9h2.9l-0.4,3h-2.6v7.6h-3.1v-7.6H139v-3h2.6v-2.2
		c0-2.5,1.6-3.9,3.8-3.9c1.1,0,2,0.1,2.3,0.1V10.3z"/>
</g>
<circle fill="#00BF8F" cx="80" cy="16" r="16"/>
<g>
	<path fill="#FFFFFF" d="M87,18.9c-0.7,0.2-1.4,0.2-2,0.2c-1.4,3-3.9,5.5-4.8,6c-0.5,0.3-1,0.3-1.6,0c-1-0.6-4.9-3.8-6.3-13.9h2.8
		c0.7,6.1,2.5,9.2,4.4,11.5c1.1-1.1,2.1-2.5,2.9-4.1c-1.9-1-3.1-3.1-3.1-5.6c0-2.5,1.4-4.4,3.9-4.4c2.4,0,3.7,1.5,3.7,4
		c0,1-0.2,2-0.6,2.9c0,0-1.8,0.4-2.4-0.8c0.1-0.4,0.3-1.2,0.3-1.8c0-1.2-0.4-1.8-1.1-1.8c-0.7,0-1.2,0.7-1.2,1.9c0,2.6,1.6,4,3.7,4
		c0.4,0,0.8,0,1.2-0.1V18.9z"/>
</g>
<circle fill="#FB7629" cx="176" cy="16" r="16"/>
<g>
	<path fill="#FFFFFF" d="M182.4,21.8c-0.1,0.1-0.3,0.2-0.4,0.2h-1.3c-0.3,0-0.6-0.2-0.6-0.5c-0.3-5.2-4.4-9.3-9.6-9.6
		c-0.3,0-0.5-0.3-0.5-0.6V10c0-0.2,0.1-0.3,0.2-0.4c0.1-0.1,0.3-0.2,0.4-0.2c0,0,0,0,0,0c3.1,0.2,6.1,1.5,8.3,3.7
		c2.2,2.2,3.5,5.2,3.7,8.3C182.6,21.6,182.5,21.7,182.4,21.8z M177.8,21.8c-0.1,0.1-0.3,0.2-0.4,0.2h-1.2c-0.3,0-0.5-0.2-0.6-0.5
		c-0.3-2.7-2.4-4.9-5.1-5.1c-0.3,0-0.5-0.3-0.5-0.6v-1.2c0-0.2,0.1-0.3,0.2-0.4c0.1-0.1,0.2-0.2,0.4-0.2c0,0,0,0,0,0
		c1.9,0.2,3.7,1,5,2.3c1.4,1.3,2.2,3.1,2.3,5C178,21.5,178,21.7,177.8,21.8z M171.7,22c-0.9,0-1.7-0.8-1.7-1.7s0.8-1.7,1.7-1.7
		s1.7,0.8,1.7,1.7S172.7,22,171.7,22z"/>
</g>
<circle fill="#CC181E" cx="16" cy="16" r="16"/>
<g>
	<path fill="#FFFFFF" d="M23.7,20.2c-0.2,0.9-0.9,1.5-1.7,1.6C20,22,18,22,16,22s-4,0-6-0.2c-0.8-0.1-1.5-0.7-1.7-1.6
		C8,18.9,8,17.6,8,16.3s0-2.6,0.3-3.9c0.2-0.9,0.9-1.5,1.7-1.6c2-0.2,4-0.2,6-0.2s4,0,6,0.2c0.8,0.1,1.5,0.7,1.7,1.6
		C24,13.7,24,15,24,16.3S24,18.9,23.7,20.2z M19.2,15.8l-4.6-2.9c-0.2-0.1-0.4-0.1-0.6,0c-0.2,0.1-0.3,0.3-0.3,0.5v5.7
		c0,0.2,0.1,0.4,0.3,0.5c0.1,0,0.2,0.1,0.3,0.1c0.1,0,0.2,0,0.3-0.1l4.6-2.9c0.2-0.1,0.3-0.3,0.3-0.5S19.3,15.9,19.2,15.8z"/>
</g>
<circle fill="#1769FF" cx="48" cy="16" r="16"/>
<g>
	<path fill="#FFFFFF" d="M44.3,10.6c1.9,0,3.6,0.5,3.6,2.8c0,1.1-0.5,1.9-1.5,2.3c1.4,0.4,2.1,1.4,2.1,2.8c0,2.3-1.9,3.3-4,3.3H39
		V10.6H44.3z M44,15.1c0.9,0,1.5-0.4,1.5-1.3c0-1-0.8-1.3-1.7-1.3h-2.3v2.6H44z M44.1,19.9c1,0,1.8-0.4,1.8-1.5
		c0-1.2-0.7-1.6-1.8-1.6h-2.7v3.1H44.1z M55.2,19.3h2c-0.6,1.9-1.9,2.7-3.8,2.7c-2.6,0-4.2-1.7-4.2-4.3c0-2.4,1.7-4.3,4.2-4.3
		c2.6,0,4,2,4,4.4c0,0.1,0,0.3,0,0.4h-5.9c0,1.3,0.7,2.1,2,2.1C54.1,20.3,54.9,20,55.2,19.3z M50.9,11.3v1.1h4.6v-1.1H50.9z
		 M51.4,16.9H55c-0.1-1.1-0.7-1.7-1.8-1.7C52.2,15.1,51.5,15.8,51.4,16.9z"/>
</g>
<circle fill="#EA4C89" cx="112" cy="16" r="16"/>
<g>
	<path fill="#FFFFFF" d="M112.1,24.4c-4.5,0-8.1-3.6-8.1-8.1c0-4.5,3.6-8.1,8.1-8.1s8.1,3.6,8.1,8.1
		C120.3,20.7,116.6,24.4,112.1,24.4z M112.3,15c-3.6,1.1-7,1-7.1,1c0,0.1,0,0.1,0,0.2c0,1.8,0.7,3.4,1.8,4.6
		c1.9-3.4,5.7-4.6,5.7-4.6c0.1,0,0.2-0.1,0.3-0.1C112.7,15.8,112.5,15.4,112.3,15z M109.2,9.9c-1.9,0.9-3.4,2.7-3.8,4.9
		c0.2,0,3.1,0,6.4-0.8C110.6,11.8,109.3,10.1,109.2,9.9z M113.4,17.3C113.4,17.3,113.3,17.3,113.4,17.3c0,0-4.2,1.5-5.5,4.4
		c-0.1-0.1-0.2-0.1-0.2-0.1c1.2,1,2.7,1.6,4.4,1.6c1,0,1.9-0.2,2.7-0.6C114.8,22,114.4,19.9,113.4,17.3z M110.5,9.5
		C110.5,9.5,110.5,9.5,110.5,9.5C110.5,9.5,110.5,9.5,110.5,9.5z M112.1,9.3c-0.6,0-1.1,0.1-1.6,0.2c0.1,0.1,1.4,1.9,2.6,4.1
		c2.6-1,3.6-2.5,3.6-2.5C115.5,9.9,113.9,9.3,112.1,9.3z M117.5,11.8c0,0-1.1,1.6-3.9,2.8c0.2,0.3,0.3,0.7,0.5,1
		c0.1,0.1,0.1,0.2,0.1,0.4c2.4-0.3,4.8,0.2,4.8,0.2C119.1,14.5,118.5,13,117.5,11.8z M114.7,17c0.9,2.5,1.3,4.6,1.4,5
		c1.6-1.1,2.7-2.7,3-4.7C118.9,17.3,116.9,16.7,114.7,17z"/>
</g>
<g>
</g>
<g>
</g>
<g>
</g>
<g>
</g>
<g>
</g>
<g>
</g>
<g>
</g>
<g>
</g>
<g>
</g>
<g>
</g>
<g>
</g>
<g>
</g>
<g>
</g>
<g>
</g>
<g>
</g>
</svg>
